HIERARCHY
ROOT reference
{
  OFFSET 0 0 0
  CHANNELS 6 Xposition Yposition Zposition Zrotation Xrotation Yrotation
  JOINT Hips
  {
    OFFSET 44.6805 85.9651 -20.1189
    CHANNELS 3 Zrotation Xrotation Yrotation
    JOINT RightUpLeg
    {
      OFFSET -9.20028 -1.61905 0.0313892
      CHANNELS 3 Zrotation Xrotation Yrotation
      JOINT RightLeg
      {
        OFFSET 0.0920446 -41.8676 0.113709
        CHANNELS 3 Zrotation Xrotation Yrotation
        JOINT RightFoot
        {
          OFFSET -0.78009 -42.2818 -0.985537
          CHANNELS 3 Zrotation Xrotation Yrotation
          End Site
          {
            OFFSET 0 -7.69 17.5
          }
        }
      }
    }
    JOINT LeftUpLeg
    {
      OFFSET 9.33559 -1.63058 -0.0435578
      CHANNELS 3 Zrotation Xrotation Yrotation
      JOINT LeftLeg
      {
        OFFSET 0.124601 -41.8685 -0.0153308
        CHANNELS 3 Zrotation Xrotation Yrotation
        JOINT LeftFoot
        {
          OFFSET -0.885525 -42.178 -0.480441
          CHANNELS 3 Zrotation Xrotation Yrotation
          End Site
          {
            OFFSET 0 -7.69 17.5
          }
        }
      }
    }
    JOINT Spine
    {
      OFFSET -0.030151 14.2977 0.0632059
      CHANNELS 3 Zrotation Xrotation Yrotation
      JOINT Spine1
      {
        OFFSET -0.0449239 9.71163 -4.69081e-05
        CHANNELS 3 Zrotation Xrotation Yrotation
        JOINT Spine2
        {
          OFFSET 0.0275009 10.1133 -0.0283136
          CHANNELS 3 Zrotation Xrotation Yrotation
          JOINT Spine3
          {
            OFFSET 0.0288761 9.7229 -0.000806902
            CHANNELS 3 Zrotation Xrotation Yrotation
            JOINT Neck
            {
              OFFSET -0.0518603 10.2949 0.241895
              CHANNELS 3 Zrotation Xrotation Yrotation
              JOINT Head
              {
                OFFSET -0.275401 9.55953 0.0709142
                CHANNELS 3 Zrotation Xrotation Yrotation
                End Site
                {
                  OFFSET 0 15.95 0
                }
              }
            }
            JOINT RightShoulder
            {
              OFFSET -3.17286 6.95881 0.00543218
              CHANNELS 3 Zrotation Xrotation Yrotation
              JOINT RightArm
              {
                OFFSET -12.7612 0.039846 0.0411956
                CHANNELS 3 Zrotation Xrotation Yrotation
                JOINT RightForeArm
                {
                  OFFSET -26.5517 0.0729849 0.08211
                  CHANNELS 3 Zrotation Xrotation Yrotation
                  JOINT RightHand
                  {
                    OFFSET -26.0042 -0.0197864 0.0403594
                    CHANNELS 3 Zrotation Xrotation Yrotation
                    JOINT RightHandThumb1
                    {
                      OFFSET -2.48905 0.190105 3.12053
                      CHANNELS 3 Zrotation Xrotation Yrotation
                      JOINT RightHandThumb2
                      {
                        OFFSET -3.68274 0 0
                        CHANNELS 3 Zrotation Xrotation Yrotation
                        JOINT RightHandThumb3
                        {
                          OFFSET -2.55832 0 0
                          CHANNELS 3 Zrotation Xrotation Yrotation
                          End Site
                          {
                            OFFSET -2.194 0 0
                          }
                        }
                      }
                    }
                    JOINT RightInHandIndex
                    {
                      OFFSET -3.22368 0.508421 1.97842
                      CHANNELS 3 Zrotation Xrotation Yrotation
                      JOINT RightHandIndex1
                      {
                        OFFSET -5.21684 -0.091368 0.999158
                        CHANNELS 3 Zrotation Xrotation Yrotation
                        JOINT RightHandIndex2
                        {
                          OFFSET -3.61937 0 0
                          CHANNELS 3 Zrotation Xrotation Yrotation
                          JOINT RightHandIndex3
                          {
                            OFFSET -2.0521 0 0
                            CHANNELS 3 Zrotation Xrotation Yrotation
                            End Site
                            {
                              OFFSET -1.805 0 0
                            }
                          }
                        }
                      }
                    }
                    JOINT RightInHandMiddle
                    {
                      OFFSET -3.38211 0.517263 0.756737
                      CHANNELS 3 Zrotation Xrotation Yrotation
                      JOINT RightHandMiddle1
                      {
                        OFFSET -5.17411 -0.084 0.313895
                        CHANNELS 3 Zrotation Xrotation Yrotation
                        JOINT RightHandMiddle2
                        {
                          OFFSET -3.94947 0 0
                          CHANNELS 3 Zrotation Xrotation Yrotation
                          JOINT RightHandMiddle3
                          {
                            OFFSET -2.47579 0 0
                            CHANNELS 3 Zrotation Xrotation Yrotation
                            End Site
                            {
                              OFFSET -1.975 0 0
                            }
                          }
                        }
                      }
                    }
                    JOINT RightInHandRing
                    {
                      OFFSET -3.36516 0.537895 -0.128947
                      CHANNELS 3 Zrotation Xrotation Yrotation
                      JOINT RightHandRing1
                      {
                        OFFSET -4.63474 -0.022105 -0.478947
                        CHANNELS 3 Zrotation Xrotation Yrotation
                        JOINT RightHandRing2
                        {
                          OFFSET -3.44238 0 0
                          CHANNELS 3 Zrotation Xrotation Yrotation
                          JOINT RightHandRing3
                          {
                            OFFSET -2.3881 0 0
                            CHANNELS 3 Zrotation Xrotation Yrotation
                            End Site
                            {
                              OFFSET -1.857 0 0
                            }
                          }
                        }
                      }
                    }
                    JOINT RightInHandPinky
                    {
                      OFFSET -3.16105 0.469368 -1.20179
                      CHANNELS 3 Zrotation Xrotation Yrotation
                      JOINT RightHandPinky1
                      {
                        OFFSET -4.14105 -0.022105 -1.09053
                        CHANNELS 3 Zrotation Xrotation Yrotation
                        JOINT RightHandPinky2
                        {
                          OFFSET -2.75653 0 0
                          CHANNELS 3 Zrotation Xrotation Yrotation
                          JOINT RightHandPinky3
                          {
                            OFFSET -1.74189 0 0
                            CHANNELS 3 Zrotation Xrotation Yrotation
                            End Site
                            {
                              OFFSET -1.645 0 0
                            }
                          }
                        }
                      }
                    }
                  }
                }
              }
            }
            JOINT LeftShoulder
            {
              OFFSET 3.22572 6.89245 -0.0537601
              CHANNELS 3 Zrotation Xrotation Yrotation
              JOINT LeftArm
              {
                OFFSET 12.8183 -0.0506887 -0.111983
                CHANNELS 3 Zrotation Xrotation Yrotation
                JOINT LeftForeArm
                {
                  OFFSET 26.4786 -0.0502099 0.0159937
                  CHANNELS 3 Zrotation Xrotation Yrotation
                  JOINT LeftHand
                  {
                    OFFSET 25.8931 -0.161185 0.0946899
                    CHANNELS 3 Zrotation Xrotation Yrotation
                    JOINT LeftHandThumb1
                    {
                      OFFSET 2.48905 0.190105 3.12053
                      CHANNELS 3 Zrotation Xrotation Yrotation
                      JOINT LeftHandThumb2
                      {
                        OFFSET 3.68274 0 0
                        CHANNELS 3 Zrotation Xrotation Yrotation
                        JOINT LeftHandThumb3
                        {
                          OFFSET 2.55832 0 0
                          CHANNELS 3 Zrotation Xrotation Yrotation
                          End Site
                          {
                            OFFSET 2.194 0 0
                          }
                        }
                      }
                    }
                    JOINT LeftInHandIndex
                    {
                      OFFSET 3.22368 0.508421 1.97842
                      CHANNELS 3 Zrotation Xrotation Yrotation
                      JOINT LeftHandIndex1
                      {
                        OFFSET 5.21684 -0.091368 0.999158
                        CHANNELS 3 Zrotation Xrotation Yrotation
                        JOINT LeftHandIndex2
                        {
                          OFFSET 3.61937 0 0
                          CHANNELS 3 Zrotation Xrotation Yrotation
                          JOINT LeftHandIndex3
                          {
                            OFFSET 2.0521 0 0
                            CHANNELS 3 Zrotation Xrotation Yrotation
                            End Site
                            {
                              OFFSET 1.805 0 0
                            }
                          }
                        }
                      }
                    }
                    JOINT LeftInHandMiddle
                    {
                      OFFSET 3.38211 0.517263 0.756737
                      CHANNELS 3 Zrotation Xrotation Yrotation
                      JOINT LeftHandMiddle1
                      {
                        OFFSET 5.17411 -0.084 0.313895
                        CHANNELS 3 Zrotation Xrotation Yrotation
                        JOINT LeftHandMiddle2
                        {
                          OFFSET 3.94947 0 0
                          CHANNELS 3 Zrotation Xrotation Yrotation
                          JOINT LeftHandMiddle3
                          {
                            OFFSET 2.47579 0 0
                            CHANNELS 3 Zrotation Xrotation Yrotation
                            End Site
                            {
                              OFFSET 1.975 0 0
                            }
                          }
                        }
                      }
                    }
                    JOINT LeftInHandRing
                    {
                      OFFSET 3.36516 0.537895 -0.128947
                      CHANNELS 3 Zrotation Xrotation Yrotation
                      JOINT LeftHandRing1
                      {
                        OFFSET 4.63474 -0.022105 -0.478947
                        CHANNELS 3 Zrotation Xrotation Yrotation
                        JOINT LeftHandRing2
                        {
                          OFFSET 3.44238 0 0
                          CHANNELS 3 Zrotation Xrotation Yrotation
                          JOINT LeftHandRing3
                          {
                            OFFSET 2.3881 0 0
                            CHANNELS 3 Zrotation Xrotation Yrotation
                            End Site
                            {
                              OFFSET 1.857 0 0
                            }
                          }
                        }
                      }
                    }
                    JOINT LeftInHandPinky
                    {
                      OFFSET 3.16105 0.469368 -1.20179
                      CHANNELS 3 Zrotation Xrotation Yrotation
                      JOINT LeftHandPinky1
                      {
                        OFFSET 4.14105 -0.022105 -1.09053
                        CHANNELS 3 Zrotation Xrotation Yrotation
                        JOINT LeftHandPinky2
                        {
                          OFFSET 2.75653 0 0
                          CHANNELS 3 Zrotation Xrotation Yrotation
                          JOINT LeftHandPinky3
                          {
                            OFFSET 1.74189 0 0
                            CHANNELS 3 Zrotation Xrotation Yrotation
                            End Site
                            {
                              OFFSET 1.645 0 0
                            }
                          }
                        }
                      }
                    }
                  }
                }
              }
            }
          }
        }
      }
    }
  }
}
MOTION
Frames: 2
Frame Time: 0.00833333
1.500000000000000000e+02 0.000000000000000000e+00 0.000000000000000000e+00 0.000000000000000000e+00 0.000000000000000000e+00 -0.000000000000000000e+00 4.607965911849747770e-02 -1.065112739722174490e-02 -3.859307168357816176e-01 2.867059405969368813e-01 1.317472495344914063e-01 5.313745261856610558e-01 -1.720791274107862923e-01 2.051783892335904552e-02 2.334776792236161469e-01 1.045205374195614378e-01 -1.462049564410539404e-01 -1.054333642507976759e-01 1.970702202914129675e-01 1.650612197091775035e-01 6.840129835065922315e-01 -6.190337897942711082e-02 -1.059102501131422569e-01 -2.159005726717400792e-02 -3.722502098465275792e-03 4.054923795176130774e-01 -2.662582432950383327e-01 -1.379784669920208484e-01 -1.421454084112229455e-01 9.211617823962656160e-02 -3.375957559344346798e-02 -1.930266000328520123e-02 2.285980747900522719e-02 -5.700425425055400536e-02 -1.897742097351273055e-02 4.660130586998771640e-02 8.439832706620402358e-03 1.262364295751227661e-01 6.127192595515140727e-03 5.274784194116129976e-01 -1.947049814259300682e-01 4.909805115175998602e-01 2.619808800964274487e-01 1.005706666948610467e-01 2.205030778714211354e-02 1.401861955194412812e-01 -4.797926834241612870e-02 5.909104330610758238e-01 -8.768052560207544033e-02 1.239823993583503425e-01 -4.492504416459718736e-03 -2.017448344037824359e+00 4.285388162761125108e-01 -3.934333910686910230e+01 -2.492609169625659427e-01 -3.531988202691100920e-01 -4.545200946335163361e-01 0.000000000000000000e+00 0.000000000000000000e+00 0.000000000000000000e+00 1.492078888826389960e-14 -1.796405488511153034e-14 0.000000000000000000e+00 1.761935727653656073e-15 -4.020470310062613048e-15 0.000000000000000000e+00 6.849250687065376386e-15 1.280249349550435315e-14 -8.291202867896803529e-15 0.000000000000000000e+00 0.000000000000000000e+00 0.000000000000000000e+00 0.000000000000000000e+00 2.090117531714580127e-14 1.438231499333133030e-14 0.000000000000000000e+00 2.268518872639204601e-14 5.586600171269419497e-14 6.849250687065376386e-15 1.280249349550435315e-14 -8.291202867896803529e-15 0.000000000000000000e+00 -3.816055372036830943e-15 -3.715078731367532824e-15 0.000000000000000000e+00 3.060194805092536300e-16 2.150175148904570717e-14 0.000000000000000000e+00 3.250942666117051576e-14 4.481109821333564144e-14 6.849250687065376386e-15 1.280249349550435315e-14 -8.291202867896803529e-15 0.000000000000000000e+00 0.000000000000000000e+00 0.000000000000000000e+00 0.000000000000000000e+00 -1.365951768979558914e-14 2.167524905274280064e-14 0.000000000000000000e+00 2.560035545668402807e-14 8.406949395236643734e-14 6.849250687065376386e-15 1.280249349550435315e-14 -8.291202867896803529e-15 0.000000000000000000e+00 0.000000000000000000e+00 0.000000000000000000e+00 0.000000000000000000e+00 6.584033571768239575e-15 3.554982123399833801e-14 0.000000000000000000e+00 3.612100278344667304e-15 8.817821810209694222e-14 2.701291034308821448e-01 -2.682450290757907307e-01 1.032656730664624822e+00 -9.533483623742053381e-02 1.291021490493099166e-01 -5.499010265216246890e-03 -4.982805558558746351e-02 1.867051494993180460e-01 1.084667152439785731e+00 5.235942878867770878e-01 -1.819995244937873347e+00 -5.108796978679849277e-01 0.000000000000000000e+00 0.000000000000000000e+00 0.000000000000000000e+00 1.371476727300641902e-14 9.482292887953134696e-15 0.000000000000000000e+00 -4.063694559025661663e-15 2.826527685678193722e-14 0.000000000000000000e+00 1.812613006423752664e-15 -3.224384013489207725e-15 -3.057479957783426111e-14 0.000000000000000000e+00 0.000000000000000000e+00 0.000000000000000000e+00 0.000000000000000000e+00 -1.618178528892646351e-14 5.456653622985819602e-14 0.000000000000000000e+00 2.635131765077065758e-15 3.575624275689481480e-14 1.812613006423752664e-15 -3.224384013489207725e-15 -3.057479957783426111e-14 0.000000000000000000e+00 -2.240376033900382581e-15 3.378486213236512106e-14 0.000000000000000000e+00 -9.145999564422519891e-15 9.045239312470608577e-14 0.000000000000000000e+00 -9.625449017194927002e-15 2.307777216091198148e-14 1.812613006423752664e-15 -3.224384013489207725e-15 -3.057479957783426111e-14 0.000000000000000000e+00 0.000000000000000000e+00 0.000000000000000000e+00 0.000000000000000000e+00 -1.829771552411259959e-14 2.403733009246982610e-14 0.000000000000000000e+00 3.639288485820355678e-15 4.145170260386488100e-14 1.812613006423752664e-15 -3.224384013489207725e-15 -3.057479957783426111e-14 0.000000000000000000e+00 0.000000000000000000e+00 0.000000000000000000e+00 0.000000000000000000e+00 -2.692399581991606248e-14 9.768577695533881780e-14 0.000000000000000000e+00 -8.011236108691021310e-15 2.813187022237538017e-14
1.500000000000000000e+02 0.000000000000000000e+00 0.000000000000000000e+00 0.000000000000000000e+00 0.000000000000000000e+00 -0.000000000000000000e+00 2.816198138405116153e-02 5.596576038748492070e-03 -3.988473781030172916e-01 2.849097224657146654e-01 1.627892559419467366e-01 4.560420656707659948e-01 -1.618451298478341405e-01 -1.350200310842262358e-02 2.425672586634561034e-01 6.839514713073246988e-02 -1.170829707461427255e-01 -6.939032091951213843e-02 1.832201395308225844e-01 1.920288563611215749e-01 5.618622091315986777e-01 -9.517906063296117936e-02 -9.170461585662786907e-02 6.871825271491539822e-02 -9.036213764952217425e-03 4.717670712420466428e-01 -2.853109765694707423e-01 -1.630376504487542899e-01 -1.387263071580850382e-01 2.694934211841905694e-02 -4.194757460079980710e-02 -2.215048791291579153e-02 3.680740461299049360e-03 -6.867366027135846096e-02 -2.712495956173256034e-02 1.305308073835563347e-02 1.082927922609750772e-02 1.095325826985741047e-01 1.231101548253419513e-03 5.664013291782403758e-01 -3.222261471080146156e-01 5.204776071831710427e-01 2.859086848888827692e-01 7.529769879938498500e-02 4.939951103511502906e-02 1.426479840282813549e-01 -1.130742040492792484e-02 6.730296473266149659e-01 -2.518475030638286927e-02 2.834773219377469122e-02 -3.866294141324932987e-02 -1.988988255481296541e+00 4.856923414297572572e-01 -2.891052954427971855e+01 -2.295874436256226947e-01 -3.028700562878630098e-01 -3.484304067270933558e-01 0.000000000000000000e+00 0.000000000000000000e+00 0.000000000000000000e+00 -2.386109735764604303e-15 -1.148076727843882167e-14 0.000000000000000000e+00 -1.197125507710640426e-14 7.090387057163806971e-15 0.000000000000000000e+00 7.561893945697954524e-15 3.028234971764828767e-15 -8.333159967436776260e-15 0.000000000000000000e+00 0.000000000000000000e+00 0.000000000000000000e+00 0.000000000000000000e+00 1.580360501654371377e-14 -1.343540185993969338e-14 0.000000000000000000e+00 1.638327781925366367e-14 2.840296746089851236e-14 7.561893945697954524e-15 3.028234971764828767e-15 -8.333159967436776260e-15 0.000000000000000000e+00 7.323382039877335995e-16 6.871844986512296000e-15 0.000000000000000000e+00 7.952180295844265486e-15 -4.907050134004159257e-15 0.000000000000000000e+00 2.509702108315160810e-14 1.104992213626121495e-14 7.561893945697954524e-15 3.028234971764828767e-15 -8.333159967436776260e-15 0.000000000000000000e+00 0.000000000000000000e+00 0.000000000000000000e+00 0.000000000000000000e+00 -1.553758257108812068e-14 1.367927432201571112e-14 0.000000000000000000e+00 1.737417135422608033e-14 4.364376955919030732e-14 7.561893945697954524e-15 3.028234971764828767e-15 -8.333159967436776260e-15 0.000000000000000000e+00 0.000000000000000000e+00 0.000000000000000000e+00 0.000000000000000000e+00 2.595084021655609619e-15 2.780008985447145067e-15 0.000000000000000000e+00 -2.880211134625710852e-15 3.347636433399277483e-14 3.181438040089779040e-01 -2.919641316993148439e-01 1.154817489954774068e+00 -2.867604754596816269e-02 1.372620026070582033e-01 -7.986367351262801950e-02 3.107496011431200994e-03 8.815872038944505551e-02 9.988066654933863697e-01 5.328373437772200294e-01 -1.693165668241430444e+00 -7.833159475290905061e-01 0.000000000000000000e+00 0.000000000000000000e+00 0.000000000000000000e+00 1.511572739670918988e-14 4.107304577659519377e-15 0.000000000000000000e+00 -5.011149753584495831e-15 1.180057509515912177e-14 0.000000000000000000e+00 2.644178174100007366e-15 3.142124860441965711e-16 -2.574385980608786229e-14 0.000000000000000000e+00 0.000000000000000000e+00 0.000000000000000000e+00 0.000000000000000000e+00 -1.356641125301797678e-14 5.587811509369684299e-14 0.000000000000000000e+00 5.194311260718180901e-15 1.996956043619540840e-14 2.644178174100007366e-15 3.142124860441965711e-16 -2.574385980608786229e-14 0.000000000000000000e+00 -4.845508513912856778e-16 1.785176447106191129e-14 0.000000000000000000e+00 -1.348519757737211612e-14 7.747495270775407822e-14 0.000000000000000000e+00 -6.061546985715904492e-15 -1.893657878847630487e-15 2.644178174100007366e-15 3.142124860441965711e-16 -2.574385980608786229e-14 0.000000000000000000e+00 0.000000000000000000e+00 0.000000000000000000e+00 0.000000000000000000e+00 -3.993938650245484657e-15 -3.405852227419950249e-14 0.000000000000000000e+00 -2.133278851926078877e-15 3.125782110739233524e-14 2.644178174100007366e-15 3.142124860441965711e-16 -2.574385980608786229e-14 0.000000000000000000e+00 0.000000000000000000e+00 0.000000000000000000e+00 0.000000000000000000e+00 -1.596342384598594386e-14 6.045098162322306529e-14 0.000000000000000000e+00 -8.651417870382696208e-16 1.690656651754729295e-14
